<mxfile host="app.diagrams.net" modified="2021-02-19T23:12:16.033Z" agent="5.0 (Macintosh)" etag="B6EofiGhJHlcmwSzDqoo" version="14.3.2" type="github">
  <diagram id="S8LgDNsH3oi_np7Tv6G5" name="Page-1">
    <mxGraphModel dx="946" dy="537" grid="1" gridSize="10" guides="1" tooltips="1" connect="1" arrows="1" fold="1" page="1" pageScale="1" pageWidth="850" pageHeight="1100" math="0" shadow="0">
      <root>
        <mxCell id="0" />
        <mxCell id="1" parent="0" />
        <mxCell id="hzeWTpx5-4WtzwkX6ZTy-2" value="" style="whiteSpace=wrap;html=1;aspect=fixed;" vertex="1" parent="1">
          <mxGeometry x="10" y="10" width="720" height="720" as="geometry" />
        </mxCell>
        <mxCell id="hzeWTpx5-4WtzwkX6ZTy-1" value="" style="verticalAlign=top;align=left;spacingTop=8;spacingLeft=2;spacingRight=12;shape=cube;size=10;direction=south;fontStyle=4;html=1;" vertex="1" parent="1">
          <mxGeometry x="260" y="170" width="180" height="170" as="geometry" />
        </mxCell>
        <mxCell id="CrFYuALpQ0HrCq6QnVMU-19" style="edgeStyle=orthogonalEdgeStyle;rounded=0;orthogonalLoop=1;jettySize=auto;html=1;" parent="1" source="CrFYuALpQ0HrCq6QnVMU-13" target="CrFYuALpQ0HrCq6QnVMU-9" edge="1">
          <mxGeometry relative="1" as="geometry">
            <Array as="points">
              <mxPoint x="580" y="250" />
            </Array>
          </mxGeometry>
        </mxCell>
        <mxCell id="CrFYuALpQ0HrCq6QnVMU-32" style="edgeStyle=orthogonalEdgeStyle;rounded=0;orthogonalLoop=1;jettySize=auto;html=1;" parent="1" source="CrFYuALpQ0HrCq6QnVMU-13" target="CrFYuALpQ0HrCq6QnVMU-29" edge="1">
          <mxGeometry relative="1" as="geometry">
            <Array as="points">
              <mxPoint x="340" y="412" />
            </Array>
          </mxGeometry>
        </mxCell>
        <mxCell id="CrFYuALpQ0HrCq6QnVMU-35" style="edgeStyle=orthogonalEdgeStyle;rounded=0;orthogonalLoop=1;jettySize=auto;html=1;entryX=0.984;entryY=0.633;entryDx=0;entryDy=0;entryPerimeter=0;" parent="1" source="CrFYuALpQ0HrCq6QnVMU-13" target="CrFYuALpQ0HrCq6QnVMU-33" edge="1">
          <mxGeometry relative="1" as="geometry" />
        </mxCell>
        <mxCell id="hzeWTpx5-4WtzwkX6ZTy-4" style="edgeStyle=orthogonalEdgeStyle;rounded=0;orthogonalLoop=1;jettySize=auto;html=1;" edge="1" parent="1" source="CrFYuALpQ0HrCq6QnVMU-13" target="hzeWTpx5-4WtzwkX6ZTy-3">
          <mxGeometry relative="1" as="geometry">
            <Array as="points">
              <mxPoint x="685" y="250" />
            </Array>
          </mxGeometry>
        </mxCell>
        <mxCell id="hzeWTpx5-4WtzwkX6ZTy-8" style="edgeStyle=orthogonalEdgeStyle;rounded=0;orthogonalLoop=1;jettySize=auto;html=1;entryX=0.5;entryY=0;entryDx=0;entryDy=0;entryPerimeter=0;" edge="1" parent="1" source="CrFYuALpQ0HrCq6QnVMU-13" target="hzeWTpx5-4WtzwkX6ZTy-6">
          <mxGeometry relative="1" as="geometry" />
        </mxCell>
        <mxCell id="hzeWTpx5-4WtzwkX6ZTy-9" style="edgeStyle=orthogonalEdgeStyle;rounded=0;orthogonalLoop=1;jettySize=auto;html=1;entryX=0.5;entryY=0;entryDx=0;entryDy=0;" edge="1" parent="1" source="CrFYuALpQ0HrCq6QnVMU-13" target="CrFYuALpQ0HrCq6QnVMU-31">
          <mxGeometry relative="1" as="geometry" />
        </mxCell>
        <mxCell id="CrFYuALpQ0HrCq6QnVMU-13" value="" style="verticalAlign=top;align=left;spacingTop=8;spacingLeft=2;spacingRight=12;shape=cube;size=10;direction=south;fontStyle=4;html=1;" parent="1" vertex="1">
          <mxGeometry x="250" y="160" width="180" height="170" as="geometry" />
        </mxCell>
        <mxCell id="CrFYuALpQ0HrCq6QnVMU-1" value="" style="html=1;dashed=0;whitespace=wrap;fillColor=#2875E2;strokeColor=#ffffff;points=[[0.005,0.63,0],[0.1,0.2,0],[0.9,0.2,0],[0.5,0,0],[0.995,0.63,0],[0.72,0.99,0],[0.5,1,0],[0.28,0.99,0]];shape=mxgraph.kubernetes.icon;prIcon=api" parent="1" vertex="1">
          <mxGeometry x="312.5" y="180" width="50" height="48" as="geometry" />
        </mxCell>
        <mxCell id="CrFYuALpQ0HrCq6QnVMU-2" value="Object-Store API" style="text;html=1;strokeColor=none;fillColor=none;align=center;verticalAlign=middle;whiteSpace=wrap;rounded=0;" parent="1" vertex="1">
          <mxGeometry x="290" y="230" width="95" height="20" as="geometry" />
        </mxCell>
        <mxCell id="CrFYuALpQ0HrCq6QnVMU-15" style="edgeStyle=orthogonalEdgeStyle;rounded=0;orthogonalLoop=1;jettySize=auto;html=1;entryX=0;entryY=0;entryDx=65;entryDy=180;entryPerimeter=0;" parent="1" source="CrFYuALpQ0HrCq6QnVMU-3" target="CrFYuALpQ0HrCq6QnVMU-13" edge="1">
          <mxGeometry relative="1" as="geometry">
            <Array as="points">
              <mxPoint x="195" y="60" />
              <mxPoint x="195" y="200" />
              <mxPoint x="250" y="200" />
            </Array>
          </mxGeometry>
        </mxCell>
        <mxCell id="CrFYuALpQ0HrCq6QnVMU-3" value="Customers" style="shape=umlActor;verticalLabelPosition=bottom;verticalAlign=top;html=1;" parent="1" vertex="1">
          <mxGeometry x="110" y="30" width="30" height="60" as="geometry" />
        </mxCell>
        <mxCell id="CrFYuALpQ0HrCq6QnVMU-16" style="edgeStyle=orthogonalEdgeStyle;rounded=0;orthogonalLoop=1;jettySize=auto;html=1;entryX=0;entryY=0.514;entryDx=0;entryDy=0;entryPerimeter=0;" parent="1" source="CrFYuALpQ0HrCq6QnVMU-5" target="CrFYuALpQ0HrCq6QnVMU-13" edge="1">
          <mxGeometry relative="1" as="geometry" />
        </mxCell>
        <mxCell id="CrFYuALpQ0HrCq6QnVMU-5" value="Internal employees/devops" style="shape=umlActor;verticalLabelPosition=bottom;verticalAlign=top;html=1;" parent="1" vertex="1">
          <mxGeometry x="322.5" y="30" width="30" height="60" as="geometry" />
        </mxCell>
        <mxCell id="CrFYuALpQ0HrCq6QnVMU-17" style="edgeStyle=orthogonalEdgeStyle;rounded=0;orthogonalLoop=1;jettySize=auto;html=1;" parent="1" source="CrFYuALpQ0HrCq6QnVMU-6" edge="1">
          <mxGeometry relative="1" as="geometry">
            <mxPoint x="430" y="200" as="targetPoint" />
            <Array as="points">
              <mxPoint x="475" y="60" />
              <mxPoint x="475" y="200" />
              <mxPoint x="430" y="200" />
            </Array>
          </mxGeometry>
        </mxCell>
        <mxCell id="CrFYuALpQ0HrCq6QnVMU-6" value="Nowsecure Subsystems" style="shape=umlActor;verticalLabelPosition=bottom;verticalAlign=top;html=1;" parent="1" vertex="1">
          <mxGeometry x="520" y="30" width="30" height="60" as="geometry" />
        </mxCell>
        <mxCell id="CrFYuALpQ0HrCq6QnVMU-8" value="" style="outlineConnect=0;dashed=0;verticalLabelPosition=bottom;verticalAlign=top;align=center;html=1;shape=mxgraph.aws3.search_documents;fillColor=#F58534;gradientColor=none;" parent="1" vertex="1">
          <mxGeometry x="550" y="380" width="60" height="63" as="geometry" />
        </mxCell>
        <mxCell id="CrFYuALpQ0HrCq6QnVMU-9" value="Artifacts Metadata" style="text;html=1;strokeColor=none;fillColor=none;align=center;verticalAlign=middle;whiteSpace=wrap;rounded=0;" parent="1" vertex="1">
          <mxGeometry x="526.25" y="350" width="107.5" height="20" as="geometry" />
        </mxCell>
        <mxCell id="CrFYuALpQ0HrCq6QnVMU-10" value="Backing Object-Store" style="text;html=1;strokeColor=none;fillColor=none;align=center;verticalAlign=middle;whiteSpace=wrap;rounded=0;" parent="1" vertex="1">
          <mxGeometry x="20" y="330" width="127.5" height="20" as="geometry" />
        </mxCell>
        <mxCell id="CrFYuALpQ0HrCq6QnVMU-11" value="Minio/S3" style="text;html=1;strokeColor=none;fillColor=none;align=center;verticalAlign=middle;whiteSpace=wrap;rounded=0;" parent="1" vertex="1">
          <mxGeometry x="28.75" y="444" width="95" height="20" as="geometry" />
        </mxCell>
        <mxCell id="CrFYuALpQ0HrCq6QnVMU-26" value="&lt;div&gt;Token&lt;/div&gt;&lt;div&gt;Validation&lt;/div&gt;" style="shape=folder;fontStyle=1;spacingTop=10;tabWidth=40;tabHeight=14;tabPosition=left;html=1;" parent="1" vertex="1">
          <mxGeometry x="260" y="270" width="70" height="50" as="geometry" />
        </mxCell>
        <mxCell id="CrFYuALpQ0HrCq6QnVMU-27" value="&lt;div&gt;RBAC&lt;br&gt;&lt;/div&gt;" style="shape=folder;fontStyle=1;spacingTop=10;tabWidth=40;tabHeight=14;tabPosition=left;html=1;" parent="1" vertex="1">
          <mxGeometry x="340" y="270" width="70" height="50" as="geometry" />
        </mxCell>
        <mxCell id="CrFYuALpQ0HrCq6QnVMU-29" value="" style="image;html=1;image=img/lib/clip_art/computers/Database_128x128.png" parent="1" vertex="1">
          <mxGeometry x="420" y="371.5" width="80" height="80" as="geometry" />
        </mxCell>
        <mxCell id="CrFYuALpQ0HrCq6QnVMU-30" value="Auditing" style="text;html=1;strokeColor=none;fillColor=none;align=center;verticalAlign=middle;whiteSpace=wrap;rounded=0;" parent="1" vertex="1">
          <mxGeometry x="406.25" y="350" width="107.5" height="20" as="geometry" />
        </mxCell>
        <mxCell id="CrFYuALpQ0HrCq6QnVMU-31" value="" style="image;html=1;image=img/lib/clip_art/computers/Database_128x128.png" parent="1" vertex="1">
          <mxGeometry x="36.25" y="364" width="80" height="80" as="geometry" />
        </mxCell>
        <mxCell id="CrFYuALpQ0HrCq6QnVMU-33" value="" style="aspect=fixed;html=1;points=[];align=center;image;fontSize=12;image=img/lib/azure2/networking/Service_Endpoint_Policies.svg;" parent="1" vertex="1">
          <mxGeometry x="250.5" y="371.5" width="62" height="64" as="geometry" />
        </mxCell>
        <mxCell id="CrFYuALpQ0HrCq6QnVMU-34" value="Retention Policies" style="text;html=1;strokeColor=none;fillColor=none;align=center;verticalAlign=middle;whiteSpace=wrap;rounded=0;" parent="1" vertex="1">
          <mxGeometry x="232.5" y="351.5" width="107.5" height="20" as="geometry" />
        </mxCell>
        <mxCell id="hzeWTpx5-4WtzwkX6ZTy-3" value="" style="aspect=fixed;html=1;points=[];align=center;image;fontSize=12;image=img/lib/mscae/Chart.svg;" vertex="1" parent="1">
          <mxGeometry x="660" y="380" width="50" height="48" as="geometry" />
        </mxCell>
        <mxCell id="hzeWTpx5-4WtzwkX6ZTy-5" value="&lt;div&gt;Prometheus&lt;/div&gt;" style="text;html=1;strokeColor=none;fillColor=none;align=center;verticalAlign=middle;whiteSpace=wrap;rounded=0;" vertex="1" parent="1">
          <mxGeometry x="646.25" y="435.5" width="77.5" height="20" as="geometry" />
        </mxCell>
        <mxCell id="hzeWTpx5-4WtzwkX6ZTy-6" value="Reports" style="points=[[0,0,0],[0.25,0,0],[0.5,0,0],[0.75,0,0],[1,0,0],[0,1,0],[0.25,1,0],[0.5,1,0],[0.75,1,0],[1,1,0],[0,0.25,0],[0,0.5,0],[0,0.75,0],[1,0.25,0],[1,0.5,0],[1,0.75,0]];outlineConnect=0;fontColor=#232F3E;gradientColor=#60A337;gradientDirection=north;fillColor=#277116;strokeColor=#ffffff;dashed=0;verticalLabelPosition=bottom;verticalAlign=top;align=center;html=1;fontSize=12;fontStyle=0;aspect=fixed;shape=mxgraph.aws4.resourceIcon;resIcon=mxgraph.aws4.cost_and_usage_report;" vertex="1" parent="1">
          <mxGeometry x="147.5" y="357.5" width="78" height="78" as="geometry" />
        </mxCell>
      </root>
    </mxGraphModel>
  </diagram>
</mxfile>
